<svg width="198" height="54" viewBox="0 0 198 54" fill="none" xmlns="http://www.w3.org/2000/svg">
<path d="M0 12.8571C0 8.95163 3.16599 5.78564 7.07143 5.78564H18.1978C26.6095 5.78564 33.4286 12.6047 33.4286 21.0164V31.4999C33.4286 40.731 25.9453 48.2142 16.7143 48.2142Lnan nanLnan nanL16.7143 48.2142C7.48324 48.2142 0 40.731 0 31.4999V12.8571Z" fill="#E1E1E1"/>
<path fill-rule="evenodd" clip-rule="evenodd" d="M8.54743 25.048C7.50303 24.308 6.29419 23.7856 5.01423 23.7856V23.7856C2.24494 23.7856 0 26.0306 0 28.7999V31.4999C0 40.731 7.48324 48.2142 16.7143 48.2142C25.9453 48.2142 33.4286 40.731 33.4286 31.4999V28.7999C33.4286 26.0306 31.1836 23.7856 28.4143 23.7856V23.7856C27.1344 23.7856 25.9255 24.308 24.8811 25.048C22.5744 26.6823 19.7565 27.6429 16.7143 27.6429C13.6721 27.6429 10.8542 26.6823 8.54743 25.048Z" fill="url(#paint0_linear_836_364)"/>
<path d="M52.7765 42V13.1833H63.777C69.3969 13.1833 72.8246 16.053 72.8246 20.796C72.8246 24.1041 71.3898 26.3361 68.52 27.5319C71.7086 28.5681 73.3428 30.8799 73.3428 34.3076C73.3428 39.0904 69.8752 42 64.1756 42H52.7765ZM63.5379 16.6509H56.6825V25.8977H63.777C67.0055 25.8977 68.8389 24.144 68.8389 21.1547C68.8389 18.285 66.9258 16.6509 63.5379 16.6509ZM64.0959 29.2856H56.6825V38.5324H64.0959C67.4439 38.5324 69.3172 36.8186 69.3172 33.8293C69.3172 30.9596 67.404 29.2856 64.0959 29.2856ZM88.7544 22.3504V25.7781H87.0804C83.5331 25.7781 81.341 27.9304 81.341 31.677V42H77.5944V22.5497H81.1018L81.341 25.4991C82.1381 23.4664 84.0911 22.1113 86.7615 22.1113C87.4391 22.1113 87.9971 22.191 88.7544 22.3504ZM94.1018 17.8864C92.7466 17.8864 91.6306 16.7704 91.6306 15.4153C91.6306 14.0203 92.7466 12.9441 94.1018 12.9441C95.4569 12.9441 96.5729 14.0203 96.5729 15.4153C96.5729 16.7704 95.4569 17.8864 94.1018 17.8864ZM92.2684 42V22.5099H96.0149V42H92.2684ZM100.219 31.7567C100.219 26.2564 103.766 21.9519 109.426 21.9519C112.574 21.9519 115.006 23.3867 116.241 25.818L116.52 22.5099H119.868V41.2029C119.868 47.3409 116.082 51.2469 110.103 51.2469C104.802 51.2469 101.175 48.2576 100.458 43.3153H104.204C104.683 46.185 106.835 47.859 110.103 47.859C113.77 47.859 116.161 45.4676 116.161 41.7609V37.8549C114.886 40.1267 112.335 41.4819 109.266 41.4819C103.726 41.4819 100.219 37.2171 100.219 31.7567ZM103.965 31.677C103.965 35.3439 106.237 38.2136 109.904 38.2136C113.69 38.2136 116.002 35.5033 116.002 31.677C116.002 27.9304 113.77 25.2201 109.944 25.2201C106.197 25.2201 103.965 28.0899 103.965 31.677ZM129.022 41.9601H125.275V12.6651H129.022V25.4991C130.257 23.3867 132.609 21.9519 135.638 21.9519C140.62 21.9519 143.011 25.1006 143.011 30.0827V42H139.265V30.9197C139.265 26.9739 137.392 25.3796 134.602 25.3796C130.975 25.3796 129.022 28.0101 129.022 31.3581V41.9601ZM153.701 42H149.954V25.6586H146.128V22.5099H149.954V16.4117H153.701V22.5099H157.527V25.6586H153.701V42Z" fill="#212020"/>
<path d="M52.7765 42H52.1336C52.1336 42.355 52.4214 42.6429 52.7765 42.6429V42ZM52.7765 13.1833V12.5404C52.4214 12.5404 52.1336 12.8282 52.1336 13.1833H52.7765ZM68.52 27.5319L68.2728 26.9385C68.0245 27.0419 67.8669 27.289 67.8777 27.5577C67.8885 27.8265 68.0655 28.0601 68.3213 28.1432L68.52 27.5319ZM56.6825 16.6509V16.008C56.3274 16.008 56.0396 16.2958 56.0396 16.6509H56.6825ZM56.6825 25.8977H56.0396C56.0396 26.2528 56.3274 26.5406 56.6825 26.5406V25.8977ZM56.6825 29.2856V28.6427C56.3274 28.6427 56.0396 28.9305 56.0396 29.2856H56.6825ZM56.6825 38.5324H56.0396C56.0396 38.8875 56.3274 39.1753 56.6825 39.1753V38.5324ZM53.4193 42V13.1833H52.1336V42H53.4193ZM52.7765 13.8261H63.777V12.5404H52.7765V13.8261ZM63.777 13.8261C66.4844 13.8261 68.5836 14.5175 69.9947 15.7032C71.3919 16.8772 72.1818 18.5912 72.1818 20.796H73.4675C73.4675 18.2578 72.5435 16.1655 70.8218 14.7188C69.1141 13.2839 66.6895 12.5404 63.777 12.5404V13.8261ZM72.1818 20.796C72.1818 22.3568 71.8439 23.6144 71.207 24.6096C70.5718 25.6021 69.6082 26.382 68.2728 26.9385L68.7673 28.1253C70.3016 27.486 71.4903 26.5521 72.2899 25.3026C73.0879 24.0558 73.4675 22.5433 73.4675 20.796H72.1818ZM68.3213 28.1432C69.81 28.627 70.8902 29.392 71.6031 30.3953C72.317 31.4 72.6999 32.6967 72.6999 34.3076H73.9856C73.9856 32.4907 73.5515 30.9177 72.6512 29.6506C71.7498 28.3819 70.4187 27.473 68.7187 26.9205L68.3213 28.1432ZM72.6999 34.3076C72.6999 36.5317 71.9005 38.2657 70.4833 39.4549C69.0522 40.6558 66.9228 41.3571 64.1756 41.3571V42.6429C67.1279 42.6429 69.5822 41.8894 71.3097 40.4398C73.0512 38.9785 73.9856 36.8663 73.9856 34.3076H72.6999ZM64.1756 41.3571H52.7765V42.6429H64.1756V41.3571ZM63.5379 16.008H56.6825V17.2937H63.5379V16.008ZM56.0396 16.6509V25.8977H57.3253V16.6509H56.0396ZM56.6825 26.5406H63.777V25.2549H56.6825V26.5406ZM63.777 26.5406C65.5035 26.5406 66.9454 26.0705 67.9595 25.1151C68.9788 24.1546 69.4818 22.7831 69.4818 21.1547H68.196C68.196 22.5156 67.7822 23.5156 67.0778 24.1793C66.368 24.848 65.279 25.2549 63.777 25.2549V26.5406ZM69.4818 21.1547C69.4818 19.5684 68.9467 18.2485 67.8754 17.337C66.8195 16.4387 65.3261 16.008 63.5379 16.008V17.2937C65.1376 17.2937 66.2946 17.6801 67.0423 18.3163C67.7745 18.9393 68.196 19.8714 68.196 21.1547H69.4818ZM64.0959 28.6427H56.6825V29.9284H64.0959V28.6427ZM56.0396 29.2856V38.5324H57.3253V29.2856H56.0396ZM56.6825 39.1753H64.0959V37.8896H56.6825V39.1753ZM64.0959 39.1753C65.8728 39.1753 67.3522 38.7202 68.3933 37.7786C69.4439 36.8284 69.96 35.4624 69.96 33.8293H68.6743C68.6743 35.1854 68.2539 36.1711 67.5308 36.8251C66.7982 37.4877 65.667 37.8896 64.0959 37.8896V39.1753ZM69.96 33.8293C69.96 32.2438 69.4259 30.9173 68.3695 29.9966C67.3254 29.0868 65.8512 28.6427 64.0959 28.6427V29.9284C65.6488 29.9284 66.7852 30.3214 67.5247 30.9659C68.2519 31.5997 68.6743 32.545 68.6743 33.8293H69.96ZM88.7544 22.3504H89.3972C89.3972 22.0464 89.1843 21.784 88.8868 21.7214L88.7544 22.3504ZM88.7544 25.7781V26.421C89.1094 26.421 89.3972 26.1332 89.3972 25.7781H88.7544ZM81.341 42V42.6429C81.696 42.6429 81.9838 42.355 81.9838 42H81.341ZM77.5944 42H76.9515C76.9515 42.355 77.2393 42.6429 77.5944 42.6429V42ZM77.5944 22.5497V21.9069C77.2393 21.9069 76.9515 22.1947 76.9515 22.5497H77.5944ZM81.1018 22.5497L81.7426 22.4978C81.7155 22.164 81.4367 21.9069 81.1018 21.9069V22.5497ZM81.341 25.4991L80.7002 25.5511C80.7244 25.8493 80.9512 26.0915 81.2472 26.1351C81.5432 26.1788 81.8302 26.0124 81.9394 25.7338L81.341 25.4991ZM88.1115 22.3504V25.7781H89.3972V22.3504H88.1115ZM88.7544 25.1353H87.0804V26.421H88.7544V25.1353ZM87.0804 25.1353C85.176 25.1353 83.561 25.7158 82.4225 26.8715C81.2849 28.0262 80.6981 29.6789 80.6981 31.677H81.9838C81.9838 29.9285 82.4931 28.6318 83.3384 27.7738C84.1828 26.9167 85.4375 26.421 87.0804 26.421V25.1353ZM80.6981 31.677V42H81.9838V31.677H80.6981ZM81.341 41.3571H77.5944V42.6429H81.341V41.3571ZM78.2372 42V22.5497H76.9515V42H78.2372ZM77.5944 23.1926H81.1018V21.9069H77.5944V23.1926ZM80.4611 22.6017L80.7002 25.5511L81.9817 25.4472L81.7426 22.4978L80.4611 22.6017ZM81.9394 25.7338C82.63 23.9728 84.3271 22.7541 86.7615 22.7541V21.4684C83.8551 21.4684 81.6462 22.96 80.7425 25.2644L81.9394 25.7338ZM86.7615 22.7541C87.3786 22.7541 87.8891 22.8252 88.622 22.9795L88.8868 21.7214C88.1051 21.5568 87.4996 21.4684 86.7615 21.4684V22.7541ZM92.2684 42H91.6255C91.6255 42.355 91.9133 42.6429 92.2684 42.6429V42ZM92.2684 22.5099V21.867C91.9133 21.867 91.6255 22.1548 91.6255 22.5099H92.2684ZM96.0149 22.5099H96.6578C96.6578 22.1548 96.37 21.867 96.0149 21.867V22.5099ZM96.0149 42V42.6429C96.37 42.6429 96.6578 42.355 96.6578 42H96.0149ZM94.1018 17.2436C93.1017 17.2436 92.2735 16.4154 92.2735 15.4153H90.9878C90.9878 17.1255 92.3916 18.5293 94.1018 18.5293V17.2436ZM92.2735 15.4153C92.2735 14.3821 93.0949 13.587 94.1018 13.587V12.3013C92.3984 12.3013 90.9878 13.6585 90.9878 15.4153H92.2735ZM94.1018 13.587C95.1087 13.587 95.9301 14.3821 95.9301 15.4153H97.2158C97.2158 13.6585 95.8052 12.3013 94.1018 12.3013V13.587ZM95.9301 15.4153C95.9301 16.4154 95.1019 17.2436 94.1018 17.2436V18.5293C95.812 18.5293 97.2158 17.1255 97.2158 15.4153H95.9301ZM92.9112 42V22.5099H91.6255V42H92.9112ZM92.2684 23.1527H96.0149V21.867H92.2684V23.1527ZM95.3721 22.5099V42H96.6578V22.5099H95.3721ZM96.0149 41.3571H92.2684V42.6429H96.0149V41.3571ZM116.241 25.818L115.668 26.1092C115.798 26.3654 116.083 26.504 116.364 26.4489C116.646 26.3938 116.858 26.1583 116.882 25.872L116.241 25.818ZM116.52 22.5099V21.867C116.186 21.867 115.908 22.1229 115.88 22.4558L116.52 22.5099ZM119.868 22.5099H120.511C120.511 22.1548 120.223 21.867 119.868 21.867V22.5099ZM100.458 43.3153V42.6724C100.271 42.6724 100.094 42.7535 99.9716 42.8946C99.8495 43.0357 99.7948 43.223 99.8216 43.4076L100.458 43.3153ZM104.204 43.3153L104.838 43.2096C104.787 42.8996 104.519 42.6724 104.204 42.6724V43.3153ZM116.161 37.8549H116.804C116.804 37.5625 116.607 37.3069 116.324 37.2329C116.041 37.1589 115.744 37.2852 115.601 37.5402L116.161 37.8549ZM100.861 31.7567C100.861 29.1431 101.703 26.8524 103.177 25.2228C104.644 23.5999 106.769 22.5947 109.426 22.5947V21.309C106.422 21.309 103.944 22.4561 102.223 24.3606C100.507 26.2583 99.5758 28.87 99.5758 31.7567H100.861ZM109.426 22.5947C112.363 22.5947 114.555 23.9197 115.668 26.1092L116.814 25.5268C115.456 22.8537 112.786 21.309 109.426 21.309V22.5947ZM116.882 25.872L117.161 22.5639L115.88 22.4558L115.601 25.764L116.882 25.872ZM116.52 23.1527H119.868V21.867H116.52V23.1527ZM119.225 22.5099V41.2029H120.511V22.5099H119.225ZM119.225 41.2029C119.225 44.1391 118.322 46.4775 116.767 48.0787C115.213 49.6778 112.949 50.604 110.103 50.604V51.8897C113.236 51.8897 115.854 50.8629 117.689 48.9745C119.521 47.0882 120.511 44.4047 120.511 41.2029H119.225ZM110.103 50.604C107.574 50.604 105.494 49.8923 103.97 48.638C102.449 47.3862 101.432 45.5548 101.094 43.2229L99.8216 43.4076C100.201 46.0181 101.356 48.1525 103.153 49.6308C104.947 51.1068 107.331 51.8897 110.103 51.8897V50.604ZM100.458 43.9581H104.204V42.6724H100.458V43.9581ZM103.57 43.421C103.833 44.9969 104.565 46.2846 105.715 47.1721C106.858 48.055 108.361 48.5019 110.103 48.5019V47.2161C108.577 47.2161 107.37 46.826 106.5 46.1545C105.637 45.4875 105.054 44.5034 104.838 43.2096L103.57 43.421ZM110.103 48.5019C112.079 48.5019 113.767 47.8546 114.963 46.6534C116.158 45.4525 116.804 43.7549 116.804 41.7609H115.519C115.519 43.4735 114.969 44.825 114.052 45.7464C113.135 46.6677 111.794 47.2161 110.103 47.2161V48.5019ZM116.804 41.7609V37.8549H115.519V41.7609H116.804ZM115.601 37.5402C114.46 39.5724 112.148 40.839 109.266 40.839V42.1247C112.522 42.1247 115.312 40.681 116.722 38.1696L115.601 37.5402ZM109.266 40.839C106.672 40.839 104.586 39.8456 103.143 38.2376C101.694 36.6226 100.861 34.3511 100.861 31.7567H99.5758C99.5758 34.6228 100.497 37.2138 102.186 39.0963C103.882 40.9857 106.32 42.1247 109.266 42.1247V40.839ZM103.322 31.677C103.322 33.6402 103.931 35.4322 105.075 36.7431C106.227 38.0626 107.89 38.8564 109.904 38.8564V37.5707C108.251 37.5707 106.945 36.9297 106.044 35.8976C105.135 34.8569 104.608 33.3807 104.608 31.677H103.322ZM109.904 38.8564C111.959 38.8564 113.663 38.1158 114.848 36.8127C116.027 35.5165 116.645 33.7176 116.645 31.677H115.359C115.359 33.4627 114.821 34.9321 113.897 35.9476C112.98 36.9562 111.635 37.5707 109.904 37.5707V38.8564ZM116.645 31.677C116.645 29.6788 116.049 27.8998 114.885 26.6124C113.713 25.3171 112.018 24.5773 109.944 24.5773V25.863C111.696 25.863 113.03 26.4783 113.931 27.4748C114.839 28.4792 115.359 29.9286 115.359 31.677H116.645ZM109.944 24.5773C107.894 24.5773 106.221 25.3681 105.067 26.6786C103.921 27.9801 103.322 29.7533 103.322 31.677H104.608C104.608 30.0136 105.125 28.5583 106.032 27.5282C106.931 26.507 108.247 25.863 109.944 25.863V24.5773ZM129.022 41.9601V42.603C129.377 42.603 129.664 42.3152 129.664 41.9601H129.022ZM125.275 41.9601H124.632C124.632 42.3152 124.92 42.603 125.275 42.603V41.9601ZM125.275 12.6651V12.0223C124.92 12.0223 124.632 12.3101 124.632 12.6651H125.275ZM129.022 12.6651H129.664C129.664 12.3101 129.377 12.0223 129.022 12.0223V12.6651ZM129.022 25.4991H128.379C128.379 25.7894 128.573 26.0437 128.853 26.1196C129.134 26.1955 129.43 26.0743 129.577 25.8237L129.022 25.4991ZM143.011 42V42.6429C143.367 42.6429 143.654 42.355 143.654 42H143.011ZM139.265 42H138.622C138.622 42.355 138.91 42.6429 139.265 42.6429V42ZM129.022 41.3173H125.275V42.603H129.022V41.3173ZM125.918 41.9601V12.6651H124.632V41.9601H125.918ZM125.275 13.308H129.022V12.0223H125.275V13.308ZM128.379 12.6651V25.4991H129.664V12.6651H128.379ZM129.577 25.8237C130.69 23.9199 132.823 22.5947 135.638 22.5947V21.309C132.394 21.309 129.824 22.8535 128.467 25.1746L129.577 25.8237ZM135.638 22.5947C137.987 22.5947 139.635 23.3315 140.707 24.5697C141.792 25.8234 142.369 27.6845 142.369 30.0827H143.654C143.654 27.4988 143.035 25.2945 141.679 23.7282C140.31 22.1466 138.271 21.309 135.638 21.309V22.5947ZM142.369 30.0827V42H143.654V30.0827H142.369ZM143.011 41.3571H139.265V42.6429H143.011V41.3571ZM139.908 42V30.9197H138.622V42H139.908ZM139.908 30.9197C139.908 28.8552 139.418 27.2887 138.454 26.2357C137.48 25.1732 136.118 24.7367 134.602 24.7367V26.0224C135.875 26.0224 136.845 26.3831 137.506 27.1042C138.175 27.8348 138.622 29.0384 138.622 30.9197H139.908ZM134.602 24.7367C132.621 24.7367 131.043 25.4613 129.968 26.69C128.902 27.9075 128.379 29.5638 128.379 31.3581H129.664C129.664 29.8044 130.117 28.4715 130.935 27.5367C131.743 26.6131 132.955 26.0224 134.602 26.0224V24.7367ZM128.379 31.3581V41.9601H129.664V31.3581H128.379ZM153.701 42V42.6429C154.056 42.6429 154.344 42.355 154.344 42H153.701ZM149.954 42H149.312C149.312 42.355 149.599 42.6429 149.954 42.6429V42ZM149.954 25.6586H150.597C150.597 25.3035 150.309 25.0157 149.954 25.0157V25.6586ZM146.128 25.6586H145.485C145.485 26.0136 145.773 26.3014 146.128 26.3014V25.6586ZM146.128 22.5099V21.867C145.773 21.867 145.485 22.1548 145.485 22.5099H146.128ZM149.954 22.5099V23.1527C150.309 23.1527 150.597 22.8649 150.597 22.5099H149.954ZM149.954 16.4117V15.7689C149.599 15.7689 149.312 16.0567 149.312 16.4117H149.954ZM153.701 16.4117H154.344C154.344 16.0567 154.056 15.7689 153.701 15.7689V16.4117ZM153.701 22.5099H153.058C153.058 22.8649 153.346 23.1527 153.701 23.1527V22.5099ZM157.527 22.5099H158.17C158.17 22.1548 157.882 21.867 157.527 21.867V22.5099ZM157.527 25.6586V26.3014C157.882 26.3014 158.17 26.0136 158.17 25.6586H157.527ZM153.701 25.6586V25.0157C153.346 25.0157 153.058 25.3035 153.058 25.6586H153.701ZM153.701 41.3571H149.954V42.6429H153.701V41.3571ZM150.597 42V25.6586H149.312V42H150.597ZM149.954 25.0157H146.128V26.3014H149.954V25.0157ZM146.771 25.6586V22.5099H145.485V25.6586H146.771ZM146.128 23.1527H149.954V21.867H146.128V23.1527ZM150.597 22.5099V16.4117H149.312V22.5099H150.597ZM149.954 17.0546H153.701V15.7689H149.954V17.0546ZM153.058 16.4117V22.5099H154.344V16.4117H153.058ZM153.701 23.1527H157.527V21.867H153.701V23.1527ZM156.884 22.5099V25.6586H158.17V22.5099H156.884ZM157.527 25.0157H153.701V26.3014H157.527V25.0157ZM153.058 25.6586V42H154.344V25.6586H153.058Z" fill="#212020"/>
<path d="M161.577 31.7567V13.1833H165.483V31.5176C165.483 36.141 168.034 38.6919 172.618 38.6919C177.161 38.6919 179.672 36.1011 179.672 31.5176V13.1833H183.618V31.7567C183.618 38.373 179.393 42.4783 172.618 42.4783C165.802 42.4783 161.577 38.4129 161.577 31.7567ZM194.018 13.1833V42H190.112V13.1833H194.018Z" fill="#212020"/>
<path d="M161.577 13.1833V12.5404C161.222 12.5404 160.934 12.8282 160.934 13.1833H161.577ZM165.483 13.1833H166.126C166.126 12.8282 165.838 12.5404 165.483 12.5404V13.1833ZM179.672 13.1833V12.5404C179.317 12.5404 179.029 12.8282 179.029 13.1833H179.672ZM183.618 13.1833H184.261C184.261 12.8282 183.973 12.5404 183.618 12.5404V13.1833ZM162.22 31.7567V13.1833H160.934V31.7567H162.22ZM161.577 13.8261H165.483V12.5404H161.577V13.8261ZM164.84 13.1833V31.5176H166.126V13.1833H164.84ZM164.84 31.5176C164.84 33.9444 165.512 35.922 166.876 37.2921C168.241 38.6626 170.209 39.3347 172.618 39.3347V38.049C170.442 38.049 168.843 37.4456 167.787 36.3849C166.73 35.3237 166.126 33.7141 166.126 31.5176H164.84ZM172.618 39.3347C175.01 39.3347 176.959 38.6502 178.308 37.2734C179.655 35.8987 180.315 33.9231 180.315 31.5176H179.029C179.029 33.6956 178.434 35.3072 177.39 36.3737C176.347 37.4382 174.769 38.049 172.618 38.049V39.3347ZM180.315 31.5176V13.1833H179.029V31.5176H180.315ZM179.672 13.8261H183.618V12.5404H179.672V13.8261ZM182.975 13.1833V31.7567H184.261V13.1833H182.975ZM182.975 31.7567C182.975 34.9251 181.967 37.4273 180.21 39.1381C178.452 40.8507 175.876 41.8354 172.618 41.8354V43.1211C176.135 43.1211 179.06 42.0532 181.107 40.0592C183.157 38.0632 184.261 35.2046 184.261 31.7567H182.975ZM172.618 41.8354C169.337 41.8354 166.751 40.8591 164.989 39.1518C163.229 37.4469 162.22 34.9458 162.22 31.7567H160.934C160.934 35.2238 162.038 38.0834 164.094 40.0753C166.148 42.0648 169.083 43.1211 172.618 43.1211V41.8354ZM194.018 13.1833H194.661C194.661 12.8282 194.373 12.5404 194.018 12.5404V13.1833ZM194.018 42V42.6429C194.373 42.6429 194.661 42.355 194.661 42H194.018ZM190.112 42H189.47C189.47 42.355 189.757 42.6429 190.112 42.6429V42ZM190.112 13.1833V12.5404C189.757 12.5404 189.47 12.8282 189.47 13.1833H190.112ZM193.376 13.1833V42H194.661V13.1833H193.376ZM194.018 41.3571H190.112V42.6429H194.018V41.3571ZM190.755 42V13.1833H189.47V42H190.755ZM190.112 13.8261H194.018V12.5404H190.112V13.8261Z" fill="#212020"/>
<defs>
<linearGradient id="paint0_linear_836_364" x1="16.7143" y1="23.7856" x2="16.7143" y2="48.2142" gradientUnits="userSpaceOnUse">
<stop stop-color="#A863FF"/>
<stop offset="1" stop-color="#4F38DF"/>
</linearGradient>
</defs>
</svg>
